<svg xmlns="http://www.w3.org/2000/svg" viewBox="0 0 192 192">
  <rect width="192" height="192" fill="#00685F"/>
  <rect x="30" y="48" width="14" height="40" rx="3" fill="white"/>
  <rect x="52" y="58" width="14" height="30" rx="3" fill="white"/>
  <polygon points="20,90 40,68 60,90 80,68 100,90 120,68 140,90 172,90" fill="white"/>
  <rect x="20" y="90" width="152" height="66" rx="2" fill="white"/>
  <rect x="28" y="100" width="18" height="18" rx="2" fill="#00685F"/>
  <rect x="54" y="100" width="18" height="18" rx="2" fill="#00685F"/>
  <rect x="80" y="100" width="18" height="18" rx="2" fill="#00685F"/>
  <rect x="106" y="100" width="18" height="18" rx="2" fill="#00685F"/>
  <rect x="132" y="100" width="18" height="18" rx="2" fill="#00685F"/>
  <rect x="84" y="126" width="22" height="30" rx="2" fill="#00685F"/>
  <text x="96" y="176" text-anchor="middle" font-family="sans-serif"
    font-weight="700" font-size="14" fill="white" letter-spacing="2">IndEase</text>
</svg>
